HIERARCHY
ROOT Hips
{
	OFFSET 0.000000 0.000000 0.000000 
	CHANNELS 6 Xposition Yposition Zposition Yrotation Zrotation Xrotation 
	JOINT Lumbar
	{
		OFFSET 0.000000 0.000000 0.000000 
		CHANNELS 3 Zrotation Xrotation Yrotation
		JOINT Neck
		{
			OFFSET 0.000000 0.445665 0.000000 
			CHANNELS 3 Zrotation Xrotation Yrotation
			End Site
			{
				OFFSET 0.000000 0.227535 0.000000 
			}
		}
		JOINT RightShoulder
		{
			OFFSET 0.019635 0.377685 0.194865 
			CHANNELS 3 Zrotation Xrotation Yrotation
			JOINT RightElbow
			{
				OFFSET 0.000000 -0.243375 0.000000 
				CHANNELS 2 Zrotation Yrotation
				JOINT RightWrist
				{
					OFFSET 0.000000 -0.264825 0.000000 
					CHANNELS 2 Zrotation Xrotation
					End Site
					{
						OFFSET 0.006600 -0.176220 0.000990 
					}
				}
			}
		}
		JOINT LeftShoulder
		{
			OFFSET 0.019635 0.377685 -0.194865 
			CHANNELS 3 Zrotation Xrotation Yrotation
			JOINT LeftElbow
			{
				OFFSET 0.000000 -0.243375 0.000000 
				CHANNELS 2 Zrotation Yrotation
				JOINT LeftWrist
				{
					OFFSET 0.000000 -0.264825 0.000000 
					CHANNELS 2 Zrotation Xrotation
					End Site
					{
						OFFSET 0.006600 -0.176220 -0.000990 
					}
				}
			}
		}
	}
	JOINT RightHip
	{
		OFFSET 0.052140 -0.069960 0.075570 
		CHANNELS 3 Zrotation Xrotation Yrotation
		JOINT RightKnee
		{
			OFFSET 0.000000 -0.402270 0.000000 
			CHANNELS 1 Zrotation
			JOINT RightAnkle
			{
				OFFSET 0.000000 -0.404085 0.000000 
				CHANNELS 3 Zrotation Xrotation Yrotation
				End Site
				{
					OFFSET 0.204105 -0.089430 0.008415 
				}
			}
		}
	}
	JOINT LeftHip
	{
		OFFSET 0.052140 -0.069960 -0.075570 
		CHANNELS 3 Zrotation Xrotation Yrotation
		JOINT LeftKnee
		{
			OFFSET 0.000000 -0.402270 0.000000 
			CHANNELS 1 Zrotation
			JOINT LeftAnkle
			{
				OFFSET 0.000000 -0.404085 0.000000 
				CHANNELS 3 Zrotation Xrotation Yrotation
				End Site
				{
					OFFSET 0.204105 -0.089430 -0.008415 
				}
			}
		}
	}
}
MOTION
Frames: 11
Frame Time: 0.02
-0 0.95578 0 179.25555 0 -5.74569 7.16697 5.83744 -4.52458 -17.3505 6.81715 2.48385 12.35819 -20.9941 19.62451 11.04989 87.3269 -1.7111 -3.82035 13.90122 5.01693 -15.71975 9.59128 -81.45639 -3.18133 2.78841 -6.08285 6.80243 -1.93642 -6.29148 -11.31877 -1.68486 -7.30495 -9.20774 5.37216 20.26747 -0.06753 -5.38697 2.46115 8.44964
0.00047 0.95584 -0.00014 179.28372 0 -5.75243 7.13907 5.84131 -4.52057 -17.38011 6.80357 2.45424 12.55933 -21.01846 19.64257 11.12349 86.9133 -1.71395 -3.86555 13.92702 5.06589 -15.80002 9.56662 -81.453 -3.18331 2.7766 -6.02786 6.81896 -1.94656 -6.35445 -11.32115 -1.68942 -7.31996 -9.17716 5.38915 20.15815 -0.06602 -5.41373 2.43995 8.54389
0.00094 0.9559 -0.00028 179.31166 0 -5.75913 7.11 5.84506 -4.51661 -17.41065 6.7906 2.42511 12.76105 -21.04361 19.66205 11.19703 86.50192 -1.7169 -3.91086 13.95406 5.11423 -15.88019 9.5419 -81.4496 -3.18519 2.76483 -5.97215 6.83549 -1.95612 -6.41823 -11.32345 -1.69394 -7.33543 -9.14627 5.40615 20.05054 -0.0647 -5.44054 2.41902 8.63662
0.00143 0.95596 -0.00042 179.3392 0 -5.76574 7.07803 5.8482 -4.51304 -17.43966 6.77995 2.39712 12.96045 -21.07134 19.68418 11.27066 86.09654 -1.72014 -3.95655 13.97985 5.16039 -15.95948 9.51703 -81.44632 -3.1867 2.75316 -5.91436 6.85215 -1.96359 -6.48483 -11.32528 -1.69832 -7.35274 -9.11439 5.42336 19.94926 -0.06436 -5.46716 2.39923 8.7234
0.00184 0.95601 -0.00054 179.36919 0 -5.77283 7.06393 5.85439 -4.50765 -17.46991 6.75705 2.36246 13.16402 -21.08443 19.68842 11.34331 85.66077 -1.72163 -3.99962 14.00428 5.21786 -16.04189 9.49331 -81.44262 -3.19015 2.74102 -5.86921 6.86806 -1.9823 -6.53522 -11.32937 -1.7034 -7.36014 -9.08842 5.43943 19.81506 -0.0591 -5.49401 2.37372 8.84076
0.00241 0.95608 -0.00071 179.39374 0 -5.7789 7.01034 5.85426 -4.50595 -17.50218 6.76002 2.34241 13.36408 -21.12912 19.7331 11.41831 85.28879 -1.72698 -4.04856 14.03701 5.25152 -16.11868 9.46696 -81.43969 -3.18953 2.72985 -5.79629 6.88559 -1.97712 -6.62073 -11.3288 -1.70701 -7.38861 -9.04954 5.4579 19.75021 -0.06407 -5.52087 2.36012 8.89393
0.00338 0.9562 -0.00098 179.40512 0 -5.78233 6.85637 5.83475 -4.51658 -17.50547 6.83696 2.36075 13.51681 -21.26022 19.87311 11.4992 85.09707 -1.74232 -4.11257 14.05245 5.2166 -16.17309 9.43421 -81.43979 -3.17699 2.72133 -5.65062 6.9079 -1.90383 -6.8016 -11.31386 -1.70647 -7.47725 -8.9761 5.48372 19.8861 -0.10024 -5.54427 2.38203 8.75955
0.00451 0.95633 -0.00129 179.41056 0 -5.7847 6.66067 5.80923 -4.5309 -17.51956 6.9391 2.39495 13.67544 -21.42356 20.05708 11.58265 84.96894 -1.7617 -4.18277 14.08626 5.15819 -16.22349 9.39855 -81.44055 -3.16046 2.71379 -5.47596 6.93182 -1.80649 -7.01837 -11.29452 -1.70445 -7.58699 -8.88926 5.51182 20.09066 -0.14629 -5.56839 2.41552 8.56205
0.0056 0.95646 -0.00159 179.41771 0 -5.78748 6.47833 5.78763 -4.54168 -17.54815 7.02888 2.42224 13.85304 -21.57289 20.23185 11.66544 84.80862 -1.77967 -4.25094 14.13459 5.11223 -16.2798 9.3637 -81.44034 -3.14614 2.70583 -5.31191 6.95482 -1.7218 -7.22006 -11.27805 -1.70316 -7.68576 -8.80783 5.53844 20.25776 -0.18592 -5.59446 2.44204 8.4
0.00655 0.95658 -0.00188 179.42958 0 -5.79064 6.32007 5.76084 -4.55882 -17.48499 7.12472 2.44523 13.92955 -21.71943 20.36131 11.74617 84.66157 -1.79583 -4.31578 14.07582 5.0585 -16.31744 9.3313 -81.44275 -3.13008 2.69777 -5.15897 6.97861 -1.63093 -7.41673 -11.25765 -1.70165 -7.78994 -8.7296 5.56704 20.45049 -0.23357 -5.61082 2.47572 8.20963
0.00784 0.95672 -0.00219 179.42953 0 -5.79263 6.10121 5.74367 -4.56547 -17.62784 7.2111 2.48475 14.23016 -21.87951 20.59535 11.83173 84.50281 -1.81676 -4.38904 14.25773 5.0157 -16.39479 9.29273 -81.4401 -3.11678 2.69012 -4.97566 7.00112 -1.54586 -7.63213 -11.2447 -1.7002 -7.88838 -8.64113 5.59195 20.60709 -0.26703 -5.64772 2.49728 8.06299
